#!OML:ASF I:\Actors\actors\Patient Classification 2\Patient 1\Session 1\actor1.ASF
:FULLY-SPECIFIED
:DEGREES
623
root -0.85999 18.6063 5.30575 1.93725 0.521879 -2.82908
lowerback 19.0763 -0.325419 2.95691
upperback 2.15923 0.400253 2.34127
thorax -8.35315 0.133613 0.747783
lowerneck -12.0568 2.43798 -2.79013
upperneck -15.0248 3.30653 -2.60455
head -2.80553 1.8501 -0.335622
rclavicle -1.68967e-015 1.31198e-014
rhumerus -50.5111 -4.78907 -72.5452
rradius 59.8813
rwrist 7.34343
rhand 2.28985 -41.1786
rfingers 7.12502
rthumb 27.7818 -69.1454
lclavicle -1.68967e-015 1.31198e-014
lhumerus 28.6346 5.01301 26.0663
lradius 133.973
lwrist 37.2461
lhand -21.9918 -42.8183
lfingers 7.12502
lthumb 4.41668 -12.8843
rfemur 3.73952 -1.14177 17.3277
rtibia 2.31786
rfoot -14.593 -10.0435
rtoes -10.5826
lfemur -11.5828 -0.124404 -10.0769
ltibia 28.6288
lfoot -19.9357 7.48052
ltoes -56.4125
624
root -0.860542 18.6033 5.30489 1.96308 0.544895 -2.80692
lowerback 19.0165 -0.321014 3.06191
upperback 2.20227 0.418701 2.29029
thorax -8.27195 0.139022 0.627237
lowerneck -12.0416 2.38539 -2.80837
upperneck -14.6287 3.24508 -2.63328
head -2.67054 1.81451 -0.336882
rclavicle 9.93923e-017 -5.1684e-015
rhumerus -50.5753 -4.85227 -72.6121
rradius 59.9861
rwrist 7.33408
rhand 2.32332 -41.1613
rfingers 7.12502
rthumb 27.8138 -69.1229
lclavicle 9.93923e-017 -5.1684e-015
lhumerus 28.3577 4.34524 26.0771
lradius 134.089
lwrist 38.3404
lhand -21.7696 -42.0567
lfingers 7.12502
lthumb 4.63124 -12.1273
rfemur 3.15059 -1.16527 17.3127
rtibia 3.44644
rfoot -15.0517 -9.73518
rtoes -10.6861
lfemur -11.6859 -0.100247 -10.0962
ltibia 28.7526
lfoot -19.9736 7.42256
ltoes -56.3621
625
root -0.86193 18.5991 5.30445 1.94903 0.576767 -2.79869
lowerback 18.749 -0.300194 3.03459
upperback 2.41362 0.422655 2.32964
thorax -7.89569 0.146955 0.680557
lowerneck -11.6053 2.39049 -2.61919
upperneck -14.632 3.19105 -2.9479
head -2.73415 1.78753 -0.476042
rclavicle -1.19271e-015 -8.34896e-015
rhumerus -50.3823 -4.8521 -72.6471
rradius 60.0276
rwrist 7.29396
rhand 2.26583 -41.1035
rfingers 7.12502
rthumb 27.7588 -69.074
lclavicle -1.19271e-015 -8.34896e-015
lhumerus 28.0507 3.75738 26.1405
lradius 134.166
lwrist 39.6443
lhand -21.682 -41.0895
lfingers 7.12502
lthumb 4.71587 -11.162
rfemur 2.75235 -1.19573 17.3162
rtibia 4.29479
rfoot -15.3947 -9.51437
rtoes -10.9735
lfemur -11.7259 -0.0288105 -10.0909
ltibia 28.8421
lfoot -19.993 7.27159
ltoes -56.2108
626
root -0.863005 18.596 5.30669 1.91056 0.576753 -2.76646
lowerback 18.3258 -0.271044 2.88824
upperback 2.72379 0.406456 2.41456
thorax -7.33027 0.15079 0.853602
lowerneck -11.1171 2.4453 -2.50751
upperneck -14.6276 3.21754 -3.17997
head -2.8074 1.80382 -0.576188
rclavicle 1.98785e-015 5.1684e-015
rhumerus -50.0909 -4.69894 -72.6788
rradius 60.0806
rwrist 7.19338
rhand 2.25195 -41.085
rfingers 7.12502
rthumb 27.7455 -69.0576
lclavicle 1.98785e-015 5.1684e-015
lhumerus 27.6248 3.17051 26.1945
lradius 134.231
lwrist 41.0551
lhand -21.7208 -40.2852
lfingers 7.12502
lthumb 4.67838 -10.3568
rfemur 2.4516 -1.194 17.283
rtibia 5.01874
rfoot -15.6688 -9.30039
rtoes -11.1119
lfemur -11.7067 0.0834355 -10.12
ltibia 28.9034
lfoot -19.9668 7.18611
ltoes -56.2729
627
root -0.862336 18.5929 5.31403 1.8543 0.559796 -2.64784
lowerback 17.9336 -0.239503 2.78251
upperback 2.99582 0.398418 2.41134
thorax -6.82405 0.154621 0.90721
lowerneck -10.8638 2.47332 -2.47617
upperneck -14.2559 3.24641 -3.28054
head -2.71871 1.81442 -0.611068
rclavicle 8.54774e-015 1.03368e-014
rhumerus -49.9412 -4.58248 -72.7552
rradius 60.1715
rwrist 7.06642
rhand 2.26889 -41.2327
rfingers 7.12502
rthumb 27.7617 -69.2027
lclavicle 8.54774e-015 1.03368e-014
lhumerus 27.1817 2.35312 26.28
lradius 134.281
lwrist 42.6518
lhand -21.7039 -39.7348
lfingers 7.12502
lthumb 4.69469 -9.80677
rfemur 2.23419 -1.17714 17.1402
rtibia 5.64321
rfoot -15.9294 -9.12301
rtoes -11.2045
lfemur -11.632 0.223309 -10.256
ltibia 28.9486
lfoot -19.9466 7.11946
ltoes -56.4295
628
root -0.859474 18.59 5.32479 1.77423 0.535771 -2.48883
lowerback 17.6236 -0.210451 2.79497
upperback 3.18647 0.410927 2.32377
thorax -6.44993 0.163401 0.800307
lowerneck -10.5654 2.4864 -2.47155
upperneck -13.7173 3.26514 -3.34017
head -2.58242 1.8177 -0.626269
rclavicle -2.5842e-015 -4.37326e-015
rhumerus -49.9067 -4.55342 -72.867
rradius 60.1795
rwrist 7.00339
rhand 2.35439 -41.4868
rfingers 7.12502
rthumb 27.8435 -69.4436
lclavicle -2.5842e-015 -4.37326e-015
lhumerus 26.7478 1.33764 26.4235
lradius 134.31
lwrist 44.7866
lhand -21.6766 -38.782
lfingers 7.12502
lthumb 4.72104 -8.85463
rfemur 2.12168 -1.15308 16.9409
rtibia 6.13668
rfoot -16.1545 -9.02849
rtoes -11.4839
lfemur -11.4997 0.367197 -10.4446
ltibia 28.9717
lfoot -19.9729 7.00524
ltoes -56.5176
629
root -0.85889 18.5878 5.33375 1.70483 0.521384 -2.40449
lowerback 17.306 -0.204261 2.8481
upperback 3.34375 0.405181 2.27932
thorax -6.10854 0.162872 0.721508
lowerneck -10.2208 2.51718 -2.61548
upperneck -13.0599 3.33025 -3.29245
head -2.41971 1.84664 -0.581149
rclavicle 2.38542e-015 2.38542e-015
rhumerus -49.8281 -4.4674 -72.9633
rradius 60.0813
rwrist 6.99968
rhand 2.48431 -41.5962
rfingers 7.12502
rthumb 27.9677 -69.5328
lclavicle 2.38542e-015 2.38542e-015
lhumerus 26.209 0.380076 26.6362
lradius 134.371
lwrist 47.5799
lhand -21.7382 -37.4744
lfingers 7.12502
lthumb 4.66154 -7.54569
rfemur 2.03702 -1.13693 16.8379
rtibia 6.53144
rfoot -16.3254 -8.95414
rtoes -11.6768
lfemur -11.3776 0.435825 -10.5433
ltibia 28.9614
lfoot -20.0025 6.97244
ltoes -56.6128
